<?xml version="1.0" encoding="UTF-8"?>
<svg xmlns="http://www.w3.org/2000/svg" width="1400" height="320" viewBox="0 0 1400 320">
<defs>
<linearGradient id="bg" x1="0" y1="0" x2="1" y2="1">
<stop offset="0%" stop-color="#0D1117"/>
<stop offset="100%" stop-color="#161B22"/>
</linearGradient>
<style><![CDATA[
.t{font-family:Consolas,Monaco,monospace}
.big{fill:#F8FAFC;font-size:42px;font-weight:bold}
.med{fill:#C9D1D9;font-size:22px}
.small{fill:#A855F7;font-size:20px}
.code{fill:#22D3EE;font-size:18px}
]]></style>
</defs>
<rect width="1400" height="320" rx="18" fill="url(#bg)"/>
<rect x="20" y="20" width="1360" height="280" rx="14" fill="#161B22" stroke="#30363D"/>
<circle cx="50" cy="45" r="7" fill="#ff5f56"/>
<circle cx="72" cy="45" r="7" fill="#ffbd2e"/>
<circle cx="94" cy="45" r="7" fill="#27c93f"/>
<line x1="20" y1="65" x2="1380" y2="65" stroke="#30363D"/>
<text x="55" y="105" class="t med">$ whoami<span/></text>
<rect x="178" y="88" width="8" height="20" fill="#EC4899"/>
<text x="55" y="155" class="t big">Punya Gandhi</text>
<text x="55" y="195" class="t med">Founder • Hardware Engineer • Inventor • Entrepreneur</text>

<g>
<rect x="55" y="220" width="95" height="28" rx="14" fill="#2D1B4D"/><text x="75" y="239" class="t small">Arduino</text>
<rect x="160" y="220" width="60" height="28" rx="14" fill="#2D1B4D"/><text x="178" y="239" class="t small">C++</text>
<rect x="230" y="220" width="82" height="28" rx="14" fill="#2D1B4D"/><text x="247" y="239" class="t small">Python</text>
<rect x="322" y="220" width="120" height="28" rx="14" fill="#2D1B4D"/><text x="338" y="239" class="t small">JavaScript</text>
</g>

<text x="860" y="110" class="t code">const punya = {</text>
<text x="890" y="140" class="t code">company: "IVISYX",</text>
<text x="890" y="170" class="t code">mission: "Accessibility",</text>
<text x="890" y="200" class="t code">focus: "Embedded Systems",</text>
<text x="890" y="230" class="t code">status: "Building the future"</text>
<text x="860" y="260" class="t code">}</text>
</svg>